HIERARCHY
ROOT Hips
{
	OFFSET -3.958830 18.904000 13.208200
	CHANNELS 6 Xposition Yposition Zposition Zrotation Yrotation Xrotation 
	JOINT LHipJoint
	{
		OFFSET 0.000000 0.000000 0.000000
		CHANNELS 3 Zrotation Yrotation Xrotation
		JOINT LeftUpLeg
		{
			OFFSET 1.800000 -1.400000 0.085000
			CHANNELS 3 Zrotation Yrotation Xrotation
			JOINT LeftLeg
			{
				OFFSET 2.215000 -6.000000 0.000000
				CHANNELS 3 Zrotation Yrotation Xrotation
				JOINT LeftFoot
				{
					OFFSET 2.500000 -6.900000 0.000000
					CHANNELS 3 Zrotation Yrotation Xrotation
					JOINT LeftToeBase
					{
						OFFSET 0.200000 -0.500000 1.950000
						CHANNELS 3 Zrotation Yrotation Xrotation
						End Site
						{
							OFFSET 0.000000 0.000000 0.000000
						}
					}
				}
			}
		}
	}
	JOINT RHipJoint
	{
		OFFSET 0.000000 0.000000 0.000000
		CHANNELS 3 Zrotation Yrotation Xrotation
		JOINT RightUpLeg
		{
			OFFSET -1.800000 -1.400000 0.085000
			CHANNELS 3 Zrotation Yrotation Xrotation
			JOINT RightLeg
			{
				OFFSET -2.215000 -6.000000 0.000000
				CHANNELS 3 Zrotation Yrotation Xrotation
				JOINT RightFoot
				{
					OFFSET -2.500000 -6.900000 0.000000
					CHANNELS 3 Zrotation Yrotation Xrotation
					JOINT RightToeBase
					{
						OFFSET -0.200000 -0.500000 1.950000
						CHANNELS 3 Zrotation Yrotation Xrotation
						End Site
						{
							OFFSET 0.000000 0.000000 0.000000
						}
					}
				}
			}
		}
	}
	JOINT LowerBack
	{
		OFFSET 0.000000 0.000000 0.000000
		CHANNELS 3 Zrotation Yrotation Xrotation
		JOINT Spine
		{
			OFFSET -0.087000 1.940000 -0.288900
			CHANNELS 3 Zrotation Yrotation Xrotation
			JOINT Spine1
			{
				OFFSET 0.000000 1.950000 0.060000
				CHANNELS 3 Zrotation Yrotation Xrotation
				JOINT Neck
				{
					OFFSET 0.000000 0.000000 0.000000
					CHANNELS 3 Zrotation Yrotation Xrotation
					JOINT Neck1
					{
						OFFSET 0.000000 1.600000 0.340000
						CHANNELS 3 Zrotation Yrotation Xrotation
						JOINT Head
						{
							OFFSET 0.000000 1.667000 -0.240000
							CHANNELS 3 Zrotation Yrotation Xrotation
							End Site
							{
								OFFSET 0.000000 0.000000 0.000000
							}
						}
					}
				}
				JOINT LeftShoulder
				{
					OFFSET 0.000000 0.000000 0.000000
					CHANNELS 3 Zrotation Yrotation Xrotation
					JOINT LeftArm
					{
						OFFSET 2.700000 1.550000 -0.730000
						CHANNELS 3 Zrotation Yrotation Xrotation
						JOINT LeftForeArm
						{
							OFFSET 5.450000 0.000000 0.000000
							CHANNELS 3 Zrotation Yrotation Xrotation
							JOINT LeftHand
							{
								OFFSET 3.450000 0.000000 0.000000
								CHANNELS 3 Zrotation Yrotation Xrotation
								JOINT LeftHandIndex1
								{
									OFFSET 0.750000 0.000000 0.000000
									CHANNELS 3 Zrotation Yrotation Xrotation
									End Site
									{
										OFFSET 0.000000 0.000000 0.000000
									}
								}
							}
						}
					}
				}
				JOINT RightShoulder
				{
					OFFSET 0.000000 0.000000 0.000000
					CHANNELS 3 Zrotation Yrotation Xrotation
					JOINT RightArm
					{
						OFFSET -2.700000 1.550000 -0.730000
						CHANNELS 3 Zrotation Yrotation Xrotation
						JOINT RightForeArm
						{
							OFFSET -5.450000 0.000000 0.000000
							CHANNELS 3 Zrotation Yrotation Xrotation
							JOINT RightHand
							{
								OFFSET -3.450000 0.000000 0.000000
								CHANNELS 3 Zrotation Yrotation Xrotation
								JOINT RightHandIndex1
								{
									OFFSET -0.750000 0.000000 0.000000
									CHANNELS 3 Zrotation Yrotation Xrotation
									End Site
									{
										OFFSET 0.000000 0.000000 0.000000
									}
								}
							}
						}
					}
				}
			}
		}
	}
}
MOTION
Frames: 13
Frame Time: 0.016667
0.143900 17.397600 -7.825390 -0.191165 -7.727269 1.036185 -14.974327 12.311955 2.798673 1.769892 -0.813373 -7.211588 -9.499657 4.768197 3.239419 -0.795835 4.684257 3.364734 -0.076080 -0.460420 -0.295220 18.647723 -10.937000 2.970898 -3.929213 -0.913765 0.547449 4.787210 -4.327594 0.855182 -0.129989 -4.798678 3.023552 0.122530 1.230030 0.232730 -4.359738 -0.133149 -6.861934 9.199173 2.941323 1.859951 -6.271371 5.303795 16.680654 0.104858 -7.719714 -10.695861 -14.577228 11.292895 32.775271 3.869170 1.988200 6.848580 8.474878 -6.356791 5.102334 -26.885481 -18.271187 -1.688145 135.318733 5.991351 -3.021809 -4.646060 3.547758 0.116530 0.783470 -0.753860 0.225110 -7.765015 14.441582 5.733206 13.204091 29.548779 -1.707230 -123.519360 -0.390296 -12.606709 1.684839 -2.360388 -0.623570 0.580790 0.520140 -0.075050 
0.132540 17.363430 -7.799140 -0.296231 -7.126786 -0.321924 -14.941653 12.233260 2.757777 2.400626 -0.569880 -5.587555 -9.707607 4.916716 3.300659 -0.833379 4.882762 3.300421 -0.025450 -0.401490 -0.240210 18.683674 -11.015719 3.019101 -4.132141 -1.151334 2.264059 4.792963 -4.516889 0.741387 -0.202369 -5.025100 2.932021 0.187680 1.238420 0.259510 -4.462333 0.131822 -6.897070 9.443368 2.737376 2.885098 -6.428277 5.707123 17.515730 0.249215 -8.327193 -10.375260 -15.316171 12.146762 33.433073 2.503220 3.391040 5.198350 6.686845 -9.723518 4.531679 -27.219886 -20.736961 -2.913516 144.538150 11.044400 8.535366 -4.652613 3.730438 0.127190 0.815410 -0.740240 0.227190 -6.109854 18.689115 5.815988 10.870656 33.487733 -1.513835 -132.828472 -6.760220 -1.811310 1.651059 -2.487211 -0.640520 0.614790 0.515220 -0.096540 
0.126510 17.327970 -7.753050 -0.483499 -4.865684 -1.673463 -14.891276 12.151567 2.683334 2.795070 -0.407491 -4.190779 -9.097234 4.947727 3.825325 -0.877522 4.962009 3.255380 0.014370 -0.328650 -0.229000 18.734338 -11.135928 3.101229 -4.082421 -1.469662 4.258005 4.788739 -4.708837 0.624745 -0.274440 -5.278970 2.810298 0.258260 1.249230 0.274820 -4.611950 0.487320 -6.953240 9.756402 2.932660 4.327925 -6.470634 6.388373 17.688722 0.206510 -8.261519 -9.710087 -14.586887 12.579865 33.335449 3.125230 3.730580 3.259990 5.186170 -11.940689 3.397433 -28.489718 -23.710583 -3.879745 151.009802 14.176410 19.315420 -4.660619 3.941397 0.115290 0.829120 -0.737110 0.219990 -4.492154 21.280875 5.892063 7.491403 34.021748 -2.936274 -141.793939 -10.734479 9.776937 1.676480 -2.645779 -0.642530 0.635950 0.524980 -0.090970 
0.108700 17.318930 -7.719090 -0.441474 -1.992838 -3.494276 -14.846562 12.105003 2.628676 3.215544 -0.211862 -2.711587 -8.663965 5.069693 4.500312 -0.896788 5.041015 3.209663 0.056150 -0.296420 -0.160790 18.770659 -11.228285 3.209553 -4.027286 -1.800286 6.598892 5.060051 -4.959639 0.412643 -0.373136 -5.507635 2.699216 0.288950 1.188240 0.256390 -4.736687 0.742508 -7.073730 9.983693 3.088767 6.808774 -7.272958 7.005322 17.951747 0.671050 -8.370708 -9.581022 -14.420193 13.366074 33.352601 3.241370 4.805380 1.562220 3.662735 -12.805185 2.925566 -30.036851 -24.712611 -4.577286 151.445769 15.393423 21.168321 -4.610058 3.973986 0.163480 0.780790 -0.705280 0.200680 -3.910191 22.589396 6.124419 5.258047 32.580239 -4.487904 -147.199959 -12.085769 16.188989 1.716338 -2.747564 -0.658710 0.637350 0.506520 -0.129140 
0.084780 17.331360 -7.692440 -0.193576 1.636293 -5.934068 -14.828524 12.062051 2.523175 3.634111 0.071300 -0.832739 -8.056812 5.275179 5.559900 -0.859242 5.091570 3.183583 0.213780 -0.112340 -0.042520 18.808872 -11.269594 3.256640 -3.912512 -2.149654 9.267022 5.223742 -5.207889 0.806335 -0.499232 -5.791163 2.593582 0.393860 1.077820 0.225160 -4.845171 0.871349 -7.059668 9.906954 2.840791 9.622982 -8.338216 7.402479 21.099678 1.012060 -8.495772 -9.507560 -14.281971 13.737553 29.849183 2.485550 5.447470 -0.713000 4.605081 -11.918255 4.045968 -29.847737 -25.677997 -3.106839 146.315394 14.330051 7.453834 -4.496108 3.861356 0.144760 0.723280 -0.671830 0.236620 -5.475148 21.668998 5.329222 3.286361 30.733742 -6.500873 -145.397829 -12.258224 12.924681 1.728699 -2.834440 -0.612020 0.604550 0.388800 -0.150800 
0.056890 17.348710 -7.663200 -0.296133 4.955920 -7.288420 -14.812741 12.092817 2.444273 4.218768 0.198513 -0.226174 -7.522413 5.428229 6.528016 -1.042198 5.316460 3.077826 0.138920 -0.274600 -0.031980 18.835433 -11.320397 3.219388 -3.008059 -2.338081 10.069451 4.877877 -5.532399 2.718911 -0.502562 -5.806191 2.540971 0.361220 1.102760 0.227390 -4.943492 0.886264 -6.992369 9.908713 2.716702 11.508082 -8.868449 7.636863 22.707620 0.417701 -9.004908 -9.101258 -15.111992 13.870229 27.561809 3.001450 4.685100 -3.942990 6.135267 -8.866319 4.526034 -29.694066 -25.022779 -1.448908 139.515397 9.893985 -7.006809 -4.558646 3.505368 0.306800 0.693760 -0.670060 0.157260 -5.894507 18.779097 4.568344 3.192119 30.247272 -7.289487 -137.971539 -9.040460 2.012472 1.666010 -2.501288 -0.738010 0.695010 0.518010 -0.227030 
0.045910 17.334550 -7.637740 -0.848898 9.177279 -7.754994 -14.794877 12.215684 2.409407 5.068933 0.157467 -1.133866 -7.174511 5.522705 7.535988 -1.128395 5.308878 3.042866 0.070970 -0.399830 -0.048110 18.826255 -11.403016 3.199319 -1.489008 -2.458370 9.497960 4.537973 -5.746674 5.535456 -0.462151 -5.664860 2.573100 0.295950 1.068970 0.192790 -5.033825 0.853956 -7.049913 10.389094 2.512865 14.214612 -9.494271 7.411798 20.663744 -0.183070 -9.580857 -8.334177 -16.338898 14.017818 26.282463 4.167420 4.074530 -5.392310 6.805517 -3.278194 4.547896 -29.738593 -23.105078 1.082305 131.914816 1.623054 -21.017993 -4.568688 3.247469 0.420920 0.623290 -0.660610 0.105120 -5.957400 13.123482 2.690588 3.433730 29.590611 -6.972290 -127.991800 -3.383294 -7.443792 1.677282 -2.219660 -0.801780 0.709440 0.580650 -0.272220 
0.036550 17.354930 -7.609950 -1.075338 13.123501 -8.109644 -14.809179 12.436915 2.430928 5.575688 0.098554 -2.321674 -7.031589 5.692993 8.789196 -1.134460 5.241410 2.994413 0.012950 -0.549880 0.006660 18.762518 -11.418056 3.194405 -0.459582 -2.363850 8.499507 4.671679 -5.986573 8.126545 -0.450437 -5.446451 2.609665 0.159810 0.922700 0.179710 -5.035157 0.558460 -7.195779 10.410181 1.843830 16.783125 -10.763942 6.821190 17.882796 -0.193381 -10.553334 -8.851799 -19.209538 14.875160 28.257070 4.585170 4.555570 -6.202840 6.802305 0.230638 4.989974 -27.391031 -16.094003 0.239406 125.646368 -8.139158 -32.821386 -4.489829 3.081499 0.582770 0.482070 -0.575910 0.026030 -6.413049 9.860393 2.365971 3.569822 26.946592 -6.979711 -118.538820 4.163290 -17.041007 1.754497 -1.966463 -0.808630 0.633070 0.604920 -0.344410 
0.009390 17.374770 -7.585420 -1.176606 18.034453 -8.607897 -14.897846 12.786385 2.510444 6.194393 0.121868 -3.684572 -6.857138 5.797335 9.709134 -1.094022 5.118407 2.968144 -0.017610 -0.608360 0.028160 18.602076 -11.362762 3.175259 0.554064 -1.981615 6.980203 5.038524 -6.293748 11.904923 -0.443118 -5.246485 2.656632 0.057480 0.784260 0.165510 -4.857168 -0.059484 -7.417999 9.076242 1.327417 20.793656 -11.012611 6.096244 13.999746 -0.420048 -10.818413 -9.639963 -21.261337 15.120394 30.134140 5.994370 4.388520 -7.663940 6.420832 2.701436 5.249184 -22.505756 -8.267580 -0.291469 121.940437 -19.555360 -45.262898 -4.385855 2.913980 0.699700 0.352350 -0.478480 -0.027360 -6.055042 7.124225 2.460339 1.863129 20.266503 -7.329315 -111.838426 14.147722 -26.854567 1.824479 -1.770487 -0.771580 0.561000 0.598700 -0.372600 
-0.021620 17.403450 -7.545370 -1.517790 22.075773 -8.614924 -14.998707 13.101799 2.566855 6.917187 0.117246 -5.668419 -6.723690 5.861021 10.480192 -1.027025 4.921331 2.962242 0.009610 -0.561660 0.056770 18.445506 -11.275053 3.110106 1.306825 -1.109096 4.423964 6.089626 -6.725872 16.652427 -0.440340 -5.141971 2.664568 0.015680 0.645830 0.146800 -4.648073 -0.673974 -7.517302 7.835887 1.341631 22.729929 -10.487827 5.732734 11.864245 -0.560420 -10.976724 -10.704994 -23.614180 15.948915 32.326161 7.958290 4.243450 -8.355600 6.355989 4.223993 5.945669 -18.328687 -0.531754 0.292245 122.699123 -31.054651 -60.531861 -4.272564 2.811653 0.740280 0.240120 -0.390450 -0.052760 -5.819365 5.422613 2.788822 -0.762117 12.834073 -6.633826 -109.867629 25.756929 -38.822577 1.856410 -1.625563 -0.692240 0.477220 0.547160 -0.370400 
-0.052980 17.441610 -7.500100 -2.564958 26.211106 -8.506865 -15.112394 13.329696 2.563245 8.304003 0.143556 -8.435669 -6.918058 6.097565 11.724021 -0.906640 4.716108 2.997749 0.126850 -0.371540 0.144170 18.306235 -11.120413 3.063486 2.157313 -0.039062 1.396453 7.547976 -7.197418 20.785666 -0.505012 -5.108413 2.673079 0.035010 0.488320 0.109530 -4.424019 -1.227301 -7.529536 7.218930 1.278692 22.913577 -9.867354 5.516612 12.942550 0.032427 -10.833602 -11.628660 -24.957675 15.731980 34.074343 6.658620 4.634470 -10.464290 5.603318 5.373789 6.315415 -15.165118 5.147112 1.754567 130.121305 -39.642169 -81.259438 -4.156714 2.791796 0.722240 0.136170 -0.282060 -0.020160 -6.151582 4.019232 3.703094 -0.589536 5.417807 -5.267582 -116.986288 35.197544 -57.445178 1.862807 -1.584600 -0.567330 0.427120 0.405240 -0.347260 
-0.088770 17.501660 -7.458020 -3.894979 31.085927 -9.458560 -15.192833 13.433189 2.554499 9.849153 0.129813 -11.007993 -7.283764 6.471989 13.285454 -0.862008 4.784423 2.925288 0.135780 -0.396060 0.181570 18.217477 -10.962386 3.060603 2.641619 1.061097 -0.779840 9.449640 -8.074139 24.546958 -0.557481 -5.355296 2.548697 -0.006670 0.418680 0.131610 -4.352419 -1.562643 -7.562572 7.530585 0.636916 24.691681 -9.932330 5.043857 14.960241 0.706818 -10.875414 -12.824179 -25.563018 15.234056 33.246554 5.817600 4.329270 -10.836180 4.456153 5.739552 7.027740 -16.679087 8.357786 2.674441 140.703344 -47.459768 -110.917620 -4.140603 2.986137 0.729780 0.087720 -0.251490 -0.030540 -6.071899 3.395874 5.252224 2.862509 -0.442846 -3.629327 -133.446641 41.116601 -89.952691 1.891641 -1.754972 -0.525060 0.353730 0.378940 -0.354110 
-0.115090 17.563660 -7.398430 -4.850162 36.431679 -8.322479 -15.301529 13.437621 2.581778 9.995389 -0.266807 -15.653827 -6.700813 6.484602 15.217785 -0.813413 4.488857 2.959956 0.326820 -0.134200 0.308360 18.126588 -10.791469 3.012517 2.460140 2.249740 -4.775122 11.347252 -8.800149 27.412995 -0.650409 -5.445794 2.474104 0.082820 0.271050 0.131700 -4.195596 -1.850068 -7.469739 6.959225 0.934826 22.031538 -8.561216 4.878011 18.839463 1.005637 -10.343602 -13.403461 -25.185338 15.215612 34.934254 5.285410 4.551890 -13.407720 2.352930 4.680952 7.364015 -21.832445 7.171578 2.448252 157.462061 -55.648419 -151.712799 -3.905084 3.397044 0.693310 0.001250 -0.144240 0.023270 -4.427850 3.944359 6.383964 7.849268 -2.267734 -1.615358 -152.703459 43.618156 -130.504455 1.840460 -2.061543 -0.389100 0.294870 0.216250 -0.325050 
